HIERARCHY
ROOT ui
{
	 OFFSET 0 0 0
	 CHANNELS 3 XPosition YPosition Z Position
	 EndSite
	 {
	 OFFSET 0 -1 0
	 }
}
ROOT li
{
	 OFFSET 0 0 0
	 CHANNELS 3 XPosition YPosition Z Position
	 EndSite
	 {
	 OFFSET 0 -1 0
	 }
}
ROOT ul
{
	 OFFSET 0 0 0
	 CHANNELS 3 XPosition YPosition Z Position
	 EndSite
	 {
	 OFFSET 0 -1 0
	 }
}
ROOT ll
{
	 OFFSET 0 0 0
	 CHANNELS 3 XPosition YPosition Z Position
	 EndSite
	 {
	 OFFSET 0 -1 0
	 }
}
ROOT tt
{
	 OFFSET 0 0 0
	 CHANNELS 3 XPosition YPosition Z Position
	 EndSite
	 {
	 OFFSET 0 -1 0
	 }
}
ROOT tb
{
	 OFFSET 0 0 0
	 CHANNELS 3 XPosition YPosition Z Position
	 EndSite
	 {
	 OFFSET 0 -1 0
	 }
}
ROOT td
{
	 OFFSET 0 0 0
	 CHANNELS 3 XPosition YPosition Z Position
	 EndSite
	 {
	 OFFSET 0 -1 0
	 }
}
ROOT v
{
	 OFFSET 0 0 0
	 CHANNELS 3 XPosition YPosition Z Position
	 EndSite
	 {
	 OFFSET 0 -1 0
	 }
}
ROOT bn
{
	 OFFSET 0 0 0
	 CHANNELS 3 XPosition YPosition Z Position
	 EndSite
	 {
	 OFFSET 0 -1 0
	 }
}
MOTION
Frames: 16
Frame Time: 0.002
-0.038021923065185544	0.0017503260374069215	0		0.5455286865234374	-2.465912841796875	0		-0.9842185668945312	0.12192085266113281	0		-0.7457770385742187	-2.412223388671875	0		3.37359521484375	-0.11190768432617187	0		4.438126953125	-0.33698703002929686	0		5.59377001953125	-0.3685008544921875	0		5.87536376953125	0.3530814514160156	0		-0.15089625549316407	5.87931201171875	0		
0.03629204559326172	-0.003483320951461792	0		0.532965576171875	-2.4677373046875	0		-0.9747083129882812	0.12969406127929686	0		-0.8070479125976563	-2.39530859375	0		3.411205322265625	-0.09844186401367187	0		4.444396484375	-0.34498843383789063	0		5.602392578125	-0.35449966430664065	0		5.8798671875	0.3611564636230469	0		-0.2840336608886719	5.8593857421875	0		
0.03980212783813476	-6.051200032234192E-4	0		0.556705322265625	-2.455164794921875	0		-0.9701863403320312	0.1335263671875	0		-0.7963565063476562	-2.385567626953125	0		3.422940673828125	-0.08159357452392578	0		4.4553466796875	-0.31509539794921876	0		5.6135927734375	-0.3715824584960937	0		5.88031884765625	0.36125518798828127	0		-0.2685703125	5.87006201171875	0		
0.04033800506591797	-7.029309868812561E-4	0		0.549483154296875	-2.444122802734375	0		-0.9578148803710937	0.1232116241455078	0		-0.7916935424804687	-2.381752197265625	0		3.437699951171875	-0.06782550811767578	0		4.4635869140625	-0.33419989013671875	0		5.627232421875	-0.3657387390136719	0		5.88884423828125	0.36118646240234376	0		-0.14904757690429687	5.8780595703125	0		
0.040936935424804685	-8.244689702987671E-4	0		0.57609130859375	-2.447644775390625	0		-0.957218994140625	0.12306549835205079	0		-0.7889884643554688	-2.378926513671875	0		3.47158251953125	-0.05039044189453125	0		4.49254052734375	-0.31266055297851564	0		5.6137783203125	-0.3694994812011719	0		5.88943408203125	0.3612090148925781	0		-0.1485934600830078	5.87793310546875	0		
-0.03844187164306641	-0.001698173999786377	0		0.5419852294921875	-2.43522265625	0		-0.9775445556640625	0.12523145294189453	0		-0.7852597045898437	-2.3771376953125	0		3.467354248046875	-0.04237785339355469	0		4.47506591796875	-0.3204161071777344	0		5.62926904296875	-0.3797531433105469	0		5.8859423828125	0.35326312255859377	0		-0.1490693054199219	5.87880029296875	0		
-0.03777818298339844	-0.0018660659790039062	0		0.5535883178710937	-2.4425517578125	0		-0.9450779418945312	0.11253758239746094	0		-0.7784511108398438	-2.37141748046875	0		3.48108056640625	-0.03867780685424805	0		4.4987177734375	-0.32185256958007813	0		5.6447646484375	-0.39103692626953124	0		5.87372705078125	0.3614264831542969	0		-0.28087893676757814	5.8577265625	0		
-0.034066352844238285	8.979240059852601E-4	0		0.5354934692382812	-2.4304287109375	0		-1.0143433227539063	0.11743990325927735	0		-0.7675668334960938	-2.36077978515625	0		3.494013671875	-0.021988920211791992	0		4.51830712890625	-0.32725177001953126	0		5.6436748046875	-0.3760834655761719	0		5.87438427734375	0.36135464477539064	0		-0.2632049255371094	5.86526318359375	0		
0.043560787200927736	-0.0015268059968948364	0		0.551647705078125	-2.401865966796875	0		-0.9387180786132813	0.11502877807617187	0		-0.77571142578125	-2.35085888671875	0		3.492888427734375	-0.00810072422027588	0		4.51745654296875	-0.29634686279296873	0		5.65020703125	-0.384279541015625	0		5.8881552734375	0.3690500793457031	0		-0.13129689025878907	5.8869765625	0		
-0.03278226089477539	4.6795699000358584E-4	0		0.5263724975585937	-2.398668212890625	0		-0.9431354370117188	0.11186874389648438	0		-0.7849105224609375	-2.342938232421875	0		3.51245458984375	-0.01256125545501709	0		4.50477880859375	-0.316281494140625	0		5.65573388671875	-0.3914801635742188	0		5.8756552734375	0.3611382751464844	0		-0.14592605590820312	5.87698974609375	0		
0.04174670791625976	-0.00493783712387085	0		0.5249688110351562	-2.40186474609375	0		-0.9425360107421875	0.11161466217041016	0		-0.7862993774414062	-2.345157958984375	0		3.527117431640625	-0.00895871353149414	0		4.50362255859375	-0.30141033935546874	0		5.65634228515625	-0.3916185302734375	0		5.87625048828125	0.36100375366210935	0		-0.14542776489257814	5.87675	0		
-0.031620031356811525	-2.071000076830387E-5	0		0.5016531982421875	-2.396727783203125	0		-1.00598486328125	0.11135765838623046	0		-0.7836665649414063	-2.343453125	0		3.541739990234375	-0.005368803977966309	0		4.524138671875	-0.3048972473144531	0		5.66275146484375	-0.4018638000488281	0		5.88167822265625	0.3527778015136719	0		-0.27928326416015625	5.85761279296875	0		
0.04586354827880859	-0.0024935901165008545	0		0.5342777099609375	-2.3924833984375	0		-1.0014154052734374	0.11501741790771484	0		-0.8539986572265625	-2.335608642578125	0		3.519440673828125	0.0067928071022033696	0		4.515953125	-0.2859402770996094	0		5.66153515625	-0.3849974365234375	0		5.87730810546875	0.3606962890625	0		-0.26273446655273436	5.86609521484375	0		
-0.027604848861694335	0.003405005931854248	0		0.5347620849609375	-2.392740234375	0		-0.9278567504882812	0.1215848388671875	0		-0.7826341552734375	-2.34400537109375	0		3.51988427734375	0.0065866770744323734	0		4.52919580078125	-0.2993324279785156	0		5.6578759765625	-0.39210336303710935	0		5.886744140625	0.36038861083984375	0		-0.1300291290283203	5.8877451171875	0		
-0.03030276107788086	-8.167489767074585E-4	0		0.53516845703125	-2.393	0		-1.0006109619140624	0.11444811248779296	0		-0.7961640625	-2.340068359375	0		3.5134541015625	0.019487480163574218	0		4.5298330078125	-0.2825245361328125	0		5.66408935546875	-0.40236679077148435	0		5.8871025390625	0.36022222900390627	0		-0.12976702880859375	5.88747412109375	0		
-0.03494933319091797	0.003991859912872315	0		0.533439208984375	-2.396227294921875	0		-0.9294259643554688	0.10804725646972656	0		-0.7639613037109375	-2.34785302734375	0		3.51372802734375	0.019282323837280273	0		4.5301123046875	-0.28271133422851563	0		5.66752734375	-0.3925813903808594	0		5.89124462890625	0.3519981994628906	0		-0.1295992431640625	5.88720263671875	0		
